PathFileType	4	(X/Y/Z)	C:\Users\u0088756\Documents\PostDoc\Conferences\Amsterdam_2018\Resources\Resources\MoCap\subject01_walk1_m.trc
DataRate	CameraRate	NumFrames	NumMarkers	Units	OrigDataRate	OrigDataStartFrame	OrigNumFrames
60.000000	60.000000	12	41	m	60.000000	114	151
Frame#	Times		R.ASIS		L.ASIS		V.Sacral		R.Thigh.Upper		R.Thigh.Front		R.Thigh.Rear		L.Thigh.Upper		L.Thigh.Front		L.Thigh.Rear		R.Shank.Upper		R.Shank.Front		R.Shank.Rear		L.Shank.Upper		L.Shank.Front		L.Shank.Rear		R.Heel		R.Midfoot.Sup		R.Midfoot.Lat		R.Toe.Tip		L.Heel		L.Midfoot.Sup		L.Midfoot.Lat		L.Toe.Tip		Sternum		R.Acromium		L.Acromium		R.Bicep		L.Bicep		R.Elbow		L.Elbow		R.Wrist.Med		R.Wrist.Lat		L.Wrist.Med		L.Wrist.Lat		R.Toe.Lat		R.Toe.Med		L.Toe.Lat		L.Toe.Med		R.Temple		L.Temple		Top.Head
			X1	Y1	Z1	X2	Y2	Z2	X3	Y3	Z3	X4	Y4	Z4	X5	Y5	Z5	X6	Y6	Z6	X7	Y7	Z7	X8	Y8	Z8	X9	Y9	Z9	X10	Y10	Z10	X11	Y11	Z11	X12	Y12	Z12	X13	Y13	Z13	X14	Y14	Z14	X15	Y15	Z15	X16	Y16	Z16	X17	Y17	Z17	X18	Y18	Z18	X19	Y19	Z19	X20	Y20	Z20	X21	Y21	Z21	X22	Y22	Z22	X23	Y23	Z23	X24	Y24	Z24	X25	Y25	Z25	X26	Y26	Z26	X27	Y27	Z27	X28	Y28	Z28	X29	Y29	Z29	X30	Y30	Z30	X31	Y31	Z31	X32	Y32	Z32	X33	Y33	Z33	X34	Y34	Z34	X35	Y35	Z35	X36	Y36	Z36	X37	Y37	Z37	X38	Y38	Z38	X39	Y39	Z39	X40	Y40	Z40	X41	Y41	Z41

114	1.883	605.46	1043.4	128.03	604.88	1029.4	-133.1	408.28	1035.9	15.22	663.09	739.18	177.09	735.15	702.12	77.992	703.05	624.66	170.36	469.09	748.88	-177.13	551.19	686.48	-121.37	435.84	645.81	-158.33	703.91	445.3	159.53	791.21	437.43	107.65	745.83	368.37	168.98	341.51	445.7	-150.94	369.88	381.26	-99.33	305.61	413.87	-156.25	783.67	58.019	91.67	916.41	112.63	64.139	911.78	92.882	169.93	1057.6	135.02	109.32	111.93	113.09	-53.785	279.16	82.84	-25.148	259.81	67.266	-119.5	376.84	43.982	-46.924	634.33	1345.8	4.672	514.73	1430.1	206.82	582.54	1460.9	-205.12	493.72	1232.7	248.57	626.81	1227.8	-234.08	433.48	1136.1	268.79	597.73	1124.2	-278.04	553.19	894.18	277.4	505.63	882.77	320.15	777.94	968.11	-188.33	752.51	932.25	-249.66	999.93	96.465	186.52	1008.2	112.45	77.867	312.67	36.905	-124.69	334.4	46.598	-24.339	683.37	1587.5	94.192	700.82	1595.9	-43.109	652.66	1762.3	34.207
115	1.9	610.04	1042.6	129.64	607.8	1028.7	-130.72	412.04	1035	18.415	669.17	740.62	178.35	742.27	704.17	80.308	707.79	624.14	169.41	471.54	748.53	-176.05	553.89	685.67	-120.75	438.11	645.14	-157.49	709.48	446.07	157.9	792.6	434.63	105.65	747.86	368.7	166	341.2	447.38	-151.02	366.51	380.44	-100.62	304.46	416.26	-156.82	769.02	59.638	90.261	904.56	103.87	61.809	899.12	85.709	167.55	1047.3	117.38	106	99.004	123.34	-55.324	264.06	84.804	-26.071	244.75	68.463	-121.18	357.32	43.717	-46.888	635.83	1345.7	8.385	517.09	1428.3	211.61	583.39	1461.8	-200.79	495.76	1230.3	252.05	624.82	1228.3	-230.31	437.08	1133.6	271.44	597.57	1125.3	-274.6	558.83	892.38	279.35	510.45	880.63	322.22	772.43	960.95	-188.35	745.41	927.11	-251.05	989.35	82.773	183.89	995.91	96.995	75.466	293.28	36.372	-124.44	317.03	45.641	-24.289	683.21	1587.9	98.553	700.05	1596.5	-39.518	651.5	1762.1	37.427
116	1.917	614.11	1043.7	131.51	610.23	1029.3	-128.88	416.04	1034.9	21.626	673.11	740.79	180.36	749.03	707.49	82.063	711.75	625.1	169.46	475.78	748.13	-174.75	558.2	684.75	-120.87	442.39	644.55	-156.84	714.33	448.27	157.69	798.4	434.54	103.11	750.02	369.45	165.61	343.66	448.16	-152.12	365.72	380.1	-101.05	306.24	418.66	-157.63	753.65	61.591	89.846	891.25	96.268	60.289	885.39	79.537	166.14	1035.3	101.57	103.73	88.249	135.88	-57.147	250.12	87.506	-26.95	230.74	70.353	-122.7	338.45	43.575	-46.611	638.8	1346.8	12.919	518.58	1427.6	216.26	584.28	1462.7	-195.54	499.54	1228.5	255.58	626.48	1229.5	-226.18	441.45	1131.7	274.37	595.52	1126.2	-270.24	564.43	892.09	281.62	515.04	878.84	324.18	765.33	953.91	-190.03	736.77	923.05	-252.84	974.81	71.626	182.69	982.24	83.686	73.797	274.24	36.025	-123.96	300.07	44.814	-23.993	686.04	1589.6	102.78	701.42	1598.1	-35.264	651.55	1763.6	42.67
117	1.933	618.85	1045.2	133.42	614.8	1030.3	-127.17	420.04	1035.4	24.691	679.93	743	181.35	754.73	709.42	82.989	717.67	627.11	168.46	481.98	747.43	-173.47	564.89	685.39	-121.38	449.44	643.27	-156.01	717.62	452.2	159.48	799.47	433.91	103.21	751.89	371.55	166.69	350	448.6	-152.04	370.01	379.39	-102.72	311.54	420.91	-158.9	737.61	63.633	90.244	876.84	90.296	59.51	870.7	74.623	165.69	1021.8	88.155	102.5	80.409	151.1	-59.193	237.54	91.231	-27.919	217.49	73.33	-123.74	320.7	43.403	-46.115	640.71	1348.3	16.35	521.61	1427.4	221.31	584.96	1465.1	-191.57	503.69	1227.9	259.41	626.34	1230.6	-222.33	446.59	1130.4	277.52	594.86	1128.5	-266.62	570.09	889.96	283.19	521.4	877.59	325.3	757.26	947.82	-191.4	727.22	919.37	-254.48	958.02	63.022	183.19	967.39	73.015	72.709	256.11	36.258	-123.44	283.7	44.574	-23.642	686.87	1591.8	106.96	701.27	1600.9	-31.277	650.46	1765.5	46.971
118	1.95	623.44	1048.3	135.06	617.37	1031.1	-124.92	423.82	1036.3	27.578	686.15	745.8	182.53	760.18	711.91	83.129	725.06	629.95	169.65	490.18	746.22	-172.41	574.56	685.59	-121.21	461.5	641.85	-155.96	719.7	454.11	161.75	799.13	432.41	102.54	749.88	372.45	169.45	360.2	448.93	-153.8	376.19	378.24	-104.64	320.76	422.95	-160.69	720.87	65.555	91.197	861.53	85.982	59.301	855.1	70.889	165.98	1006.8	77.071	102.09	76.38	169.24	-61.294	226.76	96.274	-28.981	205.24	78.173	-124.34	304.32	42.978	-45.585	643.4	1351.2	20.895	524.76	1428.7	225.74	586.27	1467.6	-186.62	509.14	1228.4	263.07	626.97	1233.4	-218.87	452.43	1129.5	280.83	592.76	1131.4	-262.41	577.41	889.82	284.53	527.5	876.54	327.44	747.36	940.65	-193.28	715.51	916.02	-256.52	944.15	56.068	182.01	951.55	64.778	72.059	239.41	37.562	-123.16	268.13	45.382	-23.482	688.02	1594.6	110.8	701.61	1603.4	-26.929	650.7	1767.7	51.081
119	1.967	627.18	1049.8	137.78	618.58	1032.8	-122.79	427.17	1037.3	30.311	690.25	747.73	184.26	761.89	711.9	85.258	728.67	631.23	171.18	500.27	744.45	-171.59	587.28	685.38	-121.04	473.99	639.06	-157.03	719.63	454.89	165.33	794.87	430.23	104.46	747.71	372.53	171.23	376.25	448.22	-158.62	387.43	377.16	-107.09	333.97	424.82	-162.8	703.51	67.158	92.363	845.45	83.071	59.448	838.66	68.196	166.66	990.61	68.112	102.24	77.094	190.29	-63.235	218.4	102.88	-30.039	194.93	85.601	-124.74	289.35	42.012	-45.323	646.15	1353.7	25.126	527.49	1429.5	230.46	586.5	1471.4	-183.16	512.62	1229	266.66	626.36	1235.4	-215.18	458.85	1129.1	284.27	590.6	1134.6	-259.1	584	890.38	287.45	535.42	876.58	329.63	738.39	936.44	-194.58	703.85	914.29	-258.97	926.72	48.361	181.25	934.92	58.588	71.793	224.59	40.357	-123.42	253.7	47.6	-23.726	689.46	1597.5	114.92	702.46	1605.4	-23.636	650.27	1769.7	55.363
120	1.983	630.86	1052.2	140.22	620.59	1034.2	-120.06	429.88	1038.3	32.88	692.9	748.57	187.38	761.6	711.21	87.601	726.57	630.66	175.01	511.97	742.29	-170.95	601.72	686.51	-122.63	491.15	634.58	-158.61	717.38	455.95	169.56	790.21	429.05	105.43	742.84	371.89	173.73	395.58	447.84	-162.51	401.15	376.37	-108.61	350.86	426.72	-164.82	685.68	68.303	93.349	828.7	81.206	59.759	821.4	66.454	167.37	973.34	61.225	102.65	83.385	213.68	-64.768	213.2	111.11	-31.009	187.87	95.843	-125.17	275.9	40.317	-45.592	648.37	1355.8	28.208	530.51	1431.8	234.6	588.06	1473.5	-178.48	519.32	1229.9	270.57	625.52	1237.9	-211.26	465.79	1129.1	287.83	586.64	1138.3	-255.45	590.64	890.58	288.96	544.3	877.16	332.03	727.21	931.49	-197.46	690.87	913.2	-260.8	909.69	43.922	182.37	917.62	54.144	71.857	212.27	44.938	-124.33	241.13	51.501	-24.496	689.96	1600.1	118.92	702.53	1608.3	-19.379	650.13	1772.3	58.626
121	2	633.13	1053.9	142.46	622.58	1036.1	-117.24	431.8	1039.5	35.26	690.25	748.3	191.68	760.72	710.92	91.226	725.17	630.69	177.51	524.79	740.14	-170.37	618.59	687.58	-123.27	510.59	631.9	-159.93	711.48	456.23	170.9	784.21	427.17	106.15	735.04	371.73	175.45	416.83	447.43	-162.73	419	375.95	-109.61	370.85	428.9	-166.34	667.5	68.968	93.877	811.35	80.058	60.096	803.41	65.498	167.88	955.28	56.388	103.05	95.629	238.24	-65.635	211.86	120.77	-31.931	185.39	108.51	-125.83	264.6	38.188	-46.54	649.56	1358.6	30.852	532.64	1433.7	238.47	588.37	1477.1	-174.78	525.52	1230.9	274.4	623.07	1240.2	-207.76	473.16	1129.5	291.45	585.2	1141	-250.97	600.46	891.54	291.22	552.44	878.17	334.3	716.43	927.97	-200.28	677.66	912.48	-263.31	890.72	42.383	182.13	899.74	51.197	72.098	203.52	51.562	-125.76	231.9	57.308	-25.794	689.93	1602.6	121.95	702.08	1611.3	-16.333	649.44	1774.5	62.38
122	2.017	633.66	1055.7	145.64	623.99	1037.3	-114.67	432.88	1041.1	37.481	688.09	748.99	193.5	757.08	710.92	95.463	720.36	632.11	181.19	538.13	738.47	-169.65	634.2	689.56	-123.72	532.99	629.07	-159.78	701.19	455.64	172.08	774.06	425.8	109.36	722.68	371.16	176.18	440.23	446.54	-163.24	438.37	376.24	-110.14	393.27	431.69	-167.19	649.07	69.241	93.921	793.48	79.362	60.391	784.9	65.035	168.13	936.75	53.394	103.3	113.2	262.2	-65.614	215.08	131.48	-32.928	188.28	122.7	-126.79	256.74	36.656	-48.245	650.15	1361.4	33.699	536.27	1435.7	242.43	587.72	1479.8	-171.7	530.68	1232.5	277.49	620.79	1243	-204.52	480.83	1130.4	295.1	581.56	1144.3	-247.33	610.28	894.12	293.45	563.18	879.46	336.6	706.01	924.62	-202.44	664.6	912.42	-265.09	872.51	41.92	183.02	881.33	49.418	72.326	199.81	60.379	-127.46	228.05	65.096	-27.57	690.78	1605.1	124.55	702.26	1614.2	-13.614	649.7	1777.4	65.867
123	2.033	636.4	1058.5	148.33	624.76	1039.1	-111.35	433.26	1043.2	39.611	684.03	750.12	197.33	752.78	710.49	97.672	713.57	631.91	183.56	551.44	737.72	-168.54	650.32	693.5	-124.2	548.02	627.5	-159.28	690.05	455.97	173.78	762.8	424.36	112.22	708.45	371.07	176.89	464.59	447.14	-163.14	460.65	378.71	-108.82	417.25	435.39	-167.34	630.47	69.283	93.664	775.15	78.926	60.631	766.09	64.766	168.19	917.99	51.8	103.43	134.29	283.58	-64.546	223.49	142.67	-34.062	196.42	137.22	-127.82	254.43	37.25	-50.73	649.97	1364.3	35.031	537.86	1438.3	245.2	586.75	1483.1	-169.14	537.67	1234.7	280.28	618.5	1245.3	-202.97	488.59	1131.8	298.67	578.51	1147.8	-245.23	619.67	896.59	294.47	573.38	881.21	338.92	693.5	923.33	-204.71	651.84	913.18	-266.59	855.19	41.309	182.3	862.48	48.407	72.454	202.74	71.222	-129.37	231.39	74.549	-29.788	691.45	1607.6	127.17	702.48	1617.1	-10.881	649.03	1780	68.76
124	2.05	635.81	1061.5	151.06	625.43	1041.8	-108.65	433.12	1046	41.677	678.47	750.17	199.63	746.05	709.05	101.39	703.43	630.6	186.17	564.36	738.24	-167.02	664.67	698.47	-122.63	560.83	628.54	-156.93	677.97	455.87	174.67	749.54	423.55	114.09	694.56	370.44	178.31	488.96	450.37	-162.66	482.92	381.32	-107.44	441.69	440.3	-166.77	611.74	69.274	93.329	756.39	78.622	60.83	747.17	64.515	168.17	899.14	51.079	103.52	156.58	300.7	-62.414	237.32	153.61	-35.275	209.28	150.87	-128.47	260.3	41.137	-53.913	650.31	1367.4	36.666	540.45	1441.2	247.2	585	1486.1	-167.21	543.14	1237	282.51	617.9	1247.9	-201.43	496.25	1133.8	302.11	574.85	1151.8	-243.18	630.31	899.68	296.38	585.01	884.11	340.73	682.77	922.01	-206.67	639.88	915.3	-269.07	835.33	40.884	182.49	843.34	47.838	72.541	213.67	83.422	-131.62	242.78	84.847	-32.385	691.38	1611.2	129.71	702.33	1620.4	-9.4328	648.28	1783.2	71.154
125	2.067	635.69	1065.2	153.96	624.74	1045.1	-105.37	432.69	1049.2	43.663	672.45	750.73	202.15	739.81	708.36	103.21	694.46	630.61	187.86	576.71	740.17	-165.3	677.86	705.11	-120.85	583.33	631.09	-157.41	665.5	456.17	176.55	736.96	422.64	114.69	680.31	370.1	178.91	514.13	456.04	-163.34	505.13	387.11	-107.36	465.51	446.37	-165.54	592.88	69.322	93.086	737.28	78.383	61.004	728.27	64.245	168.23	880.22	50.777	103.65	178.54	312.7	-59.456	256.24	163.4	-36.395	226.64	162.73	-128.63	276.13	48.093	-57.583	649.98	1370.6	36.971	540.98	1444.1	249.48	582.81	1489.3	-167.16	548.78	1240.3	284.55	613.46	1250.6	-200.36	503.63	1136.3	305.38	569.75	1154.6	-242.02	641.13	904.21	298.09	595.3	888.34	343.36	670.82	922.18	-207.63	627.9	917.59	-269.56	816.5	40.816	182.15	824.12	47.544	72.688	232.79	95.681	-134.24	261.76	94.788	-35.152	689.74	1613.6	129.96	701.11	1624	-7.4464	648.13	1786.3	73.16
